<svg width="800" height="200" viewBox="0 0 800 200" fill="none" xmlns="http://www.w3.org/2000/svg">
  <rect width="800" height="200" rx="10" fill="#0D1117"/>
  <path d="M400 40L420 80H380L400 40Z" fill="#58A6FF"/>
  <circle cx="400" cy="100" r="40" stroke="#58A6FF" stroke-width="4"/>
  <path d="M380 90L400 110L420 90" stroke="#58A6FF" stroke-width="4" stroke-linecap="round" stroke-linejoin="round"/>
  <text x="400" y="160" text-anchor="middle" fill="white" font-family="Arial, sans-serif" font-size="32" font-weight="bold">Reach GitHub Contributors</text>
  <text x="400" y="185" text-anchor="middle" fill="#8B949E" font-family="Arial, sans-serif" font-size="16">Automated Email Outreach &amp; Contributor Discovery</text>
  
  <!-- GitHub Icon Placeholder -->
  <path d="M100 100C100 77.9086 117.909 60 140 60C162.091 60 180 77.9086 180 100C180 117.67 170.87 133.2 157.06 142.11C156.06 142.75 155.03 143.34 153.97 143.88C153.11 144.32 152.19 144.64 151.24 144.82C150.29 145 149.31 145.11 148.31 145.15C147.31 145.19 146.29 145.19 145.27 145.15C144.25 145.11 143.23 145 142.23 144.82C141.28 144.64 140.36 144.32 139.5 143.88C138.44 143.34 137.41 142.75 136.41 142.11C122.6 133.2 113.47 117.67 113.47 100C113.47 77.9086 131.378 60 153.47 60" stroke="white" stroke-width="2" opacity="0.2"/>
  
  <!-- Email Icon Placeholder -->
  <rect x="620" y="80" width="60" height="40" rx="4" stroke="white" stroke-width="2" opacity="0.2"/>
  <path d="M620 80L650 105L680 80" stroke="white" stroke-width="2" opacity="0.2"/>
</svg>
